<svg height="50" viewBox="0 0 50 50" width="50" xmlns="http://www.w3.org/2000/svg"><g fill="none" fill-rule="evenodd"><rect fill="#fdf0d5" fill-rule="nonzero" height="50" rx="5" width="50"/><g fill="#f69a17" stroke="#f69a17" stroke-width=".5" transform="translate(14 14)"><path d="m17.8751278 20.6362966h-13.75006969v-9.5453707h13.75006969zm3.9234911-13.43658182c-.2685081-.26628637-.7036251-.26628637-.9721332 0l-2.5485957 2.52750765h-14.55578l-2.54840973-2.52750765c-.26869406-.26628637-.70381108-.26628637-.97231919 0-.26850811.26647078-.26850811.69780308 0 .96427386l2.54859568 2.52732326v10.6267442c0 .3769317.30792896.6819439.6874477.6819439h15.12515104c.3797047 0 .6874477-.3050122.6874477-.6819439v-10.6267442l2.5485957-2.52732326c.2685081-.26647078.2685081-.69780308 0-.96427386z"/><path d="m6.37506973 1.40007573h8.24986057v4.20003787h-8.24986057zm-.68744189 5.59992427h9.62493026c.3797015 0 .6874419-.31314743.6874419-.6999432v-5.59992427c0-.3869851-.3077404-.70013253-.6874419-.70013253h-9.62493026c-.37970147 0-.68762784.31314743-.68762784.70013253v5.59992427c0 .38679577.30792637.6999432.68762784.6999432z"/><path d="m7.66662159 15h6.66675681c.3682016 0 .6666216-.2236646.6666216-.5000676 0-.2762678-.29842-.4999324-.6666216-.4999324h-6.66675681c-.36802128 0-.66662159.2236646-.66662159.4999324 0 .276403.29860031.5000676.66662159.5000676z"/></g></g></svg>