<svg height="50" viewBox="0 0 50 50" width="50" xmlns="http://www.w3.org/2000/svg"><g fill="none" fill-rule="evenodd"><rect fill="#e6f0ff" fill-rule="nonzero" height="50" rx="5" width="50"/><g fill="#1c407f" transform="translate(13 13)"><path d="m17.7507925 8.924h-1.0849057v-6.16920755h-3.6049245v-1.08490566h4.6898302z"/><path d="m13.615566 22.6016226h-13.615566v-20.93173581h4.80092453v1.08490566h-3.71601887v18.76192455h12.53066034z"/><path d="m7.912 12.7597925h3.5571887v-1.0849057h-3.5571887z"/><path d="m7.912 16.053566h3.5571887v-1.0849056h-3.5571887z"/><path d="m5.34337736 3.33977358h7.17513204v-2.25486792h-7.17513204zm8.26003774 1.08490567h-9.3449434v-4.42467925h9.3449434z"/><path d="m4.45679245 9.69124528-1.64688679-1.64732075.76681132-.76724528.88007547.88007547 1.54186793-1.54186793.76724528.76681132z"/><path d="m4.45679245 12.9845849-1.64688679-1.6468868.76681132-.7672453.88007547.8796415 1.54186793-1.54143392.76724528.76681132z"/><path d="m4.45679245 16.2779245-1.64688679-1.6464528.76681132-.7672453.88007547.8796415 1.54186793-1.5414339.76724528.7668113z"/><path d="m7.912 9.46645283h6.6669623v-1.08490566h-6.6669623z"/><path d="m15.1580189 12.798566v4.8590755c0 1.2979811.505566 2.518283 1.4229622 3.4361132.9178302.9178302 2.1381321 1.4229623 3.4361132 1.4229623 1.2979812 0 2.5182831-.5051321 3.4361132-1.4229623.9173963-.9182641 1.4229623-2.138566 1.4229623-3.4361132s-.505566-2.517849-1.4229623-3.4361132c-.9178301-.9178302-2.138132-1.4229623-3.4361132-1.4229623zm4.8590754 10.8030566c-1.5874339 0-3.0806981-.6183962-4.2029245-1.7410566-1.1226604-1.1222264-1.7410566-2.6150566-1.7410566-4.2029245v-5.9439811h5.9439811c1.587434 0 3.0806982.6179622 4.2033585 1.7406226 1.1226604 1.1230944 1.7406227 2.6159245 1.7406227 4.2033585s-.6179623 3.0802642-1.7406227 4.2029245c-1.1226603 1.1226604-2.6159245 1.7410566-4.2033585 1.7410566z"/><path d="m22.9220377 20.0930377h-1.0849056v-.3740754c0-1.0037548-.816283-1.8200378-1.8200378-1.8200378-1.0033207 0-1.8200377.816283-1.8200377 1.8200378v.3740754h-1.0849057v-.3740754c0-1.6017548 1.3031887-2.9049434 2.9049434-2.9049434 1.6017548 0 2.9049434 1.3031886 2.9049434 2.9049434z"/><path d="m20.0170943 15.0629811c-.482566 0-.8757358.3927359-.8757358.8753019 0 .4825661.3931698.8757359.8757358.8757359.4825661 0 .8757359-.3931698.8757359-.8757359 0-.482566-.3931698-.8753019-.8757359-.8753019zm0 2.8359434c-1.081 0-1.9606415-.8796415-1.9606415-1.9606415s.8796415-1.9602075 1.9606415-1.9602075 1.9606415.8792075 1.9606415 1.9602075-.8796415 1.9606415-1.9606415 1.9606415z"/></g></g></svg>