<svg height="50" viewBox="0 0 50 50" width="50" xmlns="http://www.w3.org/2000/svg"><g fill="none"><rect fill="#f2eeff" height="50" rx="5" width="50"/><g fill="#2a089b" transform="translate(14 14)"><path d="m21.4390925 9.29029916c0 .39428571-.3204539.71473954-.7147395.71473954h-3.5731178v-2.14402525c0-1.18227731-.9617478-2.14381261-2.1438318-2.14381261h-5.0025967v-3.57336891c0-.40047058.3140757-.71454622.7147395-.71454622h10.0048068c.3942856 0 .7147395.32045379.7147395.71454622zm-5.7171429 11.13837814-2.3523782-2.3523781c-.0661008-.0662942-.1453445-.1190589-.2332857-.155395-.0873613-.0359495-.1799411-.0548907-.2729076-.0548907h-10.71954617c-.39428571 0-.71454622-.3204538-.71454622-.7147395v-9.29026055c0-.39428572.32026051-.71454622.71454622-.71454622h12.86357147c.4004706 0 .7145462.31407563.7145462.71454622zm5.0024034-20.4286773h-10.0048068c-1.18227729 0-2.14402519.9617479-2.14402519 2.14383193v3.57336891h-6.43168908c-1.18208403 0-2.14383193.9615353-2.14383193 2.14381261v9.29026055c0 1.1822773.9617479 2.1438318 2.14383193 2.1438318h10.42363867l3.3637983 3.3639916c.4482101.4480169 1.2199663.1335547 1.2199663-.5054201v-10.7195462h3.5731178c1.1822773 0 2.1440251-.9615546 2.1440251-2.14383194v-7.14646723c0-1.18208403-.9617478-2.14383193-2.1440251-2.14383193z"/><path d="m4.49717648 11.6422908c-.28276472.2812184-.26768908.7406386 0 1.0069747.272521.2740673.73657983.2781261 1.01470588 0 .26807562-.2680756.28315125-.7238235 0-1.0069747-.26440337-.2715547-.75030253-.2645967-1.01470588 0z"/><path d="m8.07029412 11.6422908c-.2827647.2812184-.26768908.7406386 0 1.0069747.27271429.2740673.73677311.2781261 1.01470588 0 .26807563-.2680756.28334453-.7238235 0-1.0069747-.26440337-.2715547-.75010925-.2645967-1.01470588 0z" opacity=".453939"/><path d="m11.643605 11.6422908c-.2798655.2640167-.2729075.7495294 0 1.0069747.2578319.2734875.7421849.2796723 1.007748 0 .2777395-.2634369.2922352-.7298151 0-1.0069747-.2576387-.2715547-.7510757-.2645967-1.007748 0z" opacity=".211449"/></g></g></svg>