<svg height="50" viewBox="0 0 50 50" width="50" xmlns="http://www.w3.org/2000/svg" xmlns:xlink="http://www.w3.org/1999/xlink"><mask id="a" fill="#fff"><path d="m0 .60000658v8.03286579c.00723684 1.81644733 1.49071711 3.27828943 3.3 3.27107943h11.7092105c.3328948 0 .6006579-.26779.6006579-.5934479v-8.03286574c-.0072368-1.81644737-1.4907895-3.27828948-3.3-3.27107939h-11.7092105c-.33289474 0-.6006579.26778991-.6006579.59344781zm16.3552632 3.13355263 4.8342105-3.53157895c.4197368-.34736842.7453947-.26052631.7453947.36907895v10.76839209c0 .7164474-.3980263.6296053-.7453947.369079l-4.8342105-3.52434214z" fill="#fff" fill-rule="evenodd"/></mask><g fill="none" fill-rule="evenodd"><rect fill="#4a8cff" fill-rule="nonzero" height="50" rx="5" width="50"/><path d="m-.92631579 12.8302408h23.78749999v-13.75000001h-23.78749999z" fill="#fff" mask="url(#a)" transform="translate(14 19)"/></g></svg>